# xmcd
#
# Track frame offsets:
#	150
#	19986
#	45178
#	58092
#	74548
#	88941
#	106898
#	126852
#	142175
#	160628
#	178011
#	198353
#	219566
#	236778
#
# Disc length: 3305 seconds
# Revision: 1
# Processed by: cddbd v1.5.2PL0 Copyright (c) Steve Scherf et al.
# Submitted via: dBpowerAMP V12.0
#
DISCID=cd0ce70e
DTITLE=Doug Figgs - "Partners"
DYEAR=2014
DGENRE=Country
TTITLE0=Life of an Outlaw
TTITLE1=Charlie And Evangeline
TTITLE2=It's A Good Day
TTITLE3=Jenny on my Mind
TTITLE4=Socios
TTITLE5=One More Thing
TTITLE6=She's  Gone
TTITLE7=I Don't Want To
TTITLE8=Wagon Wheel
TTITLE9=Ridin' the Pens
TTITLE10=There's Nothin' Wrong...
TTITLE11=Runnin' With the Wind
TTITLE12=The Cowboy Way
TTITLE13=Find Yourself A Cowgirl
EXTD=
EXTT0=
EXTT1=
EXTT2=
EXTT3=
EXTT4=
EXTT5=
EXTT6=
EXTT7=
EXTT8=
EXTT9=
EXTT10=
EXTT11=
EXTT12=
EXTT13=
PLAYORDER=
